<?xml version="1.0" encoding="UTF-8" standalone="no"?>
<!-- Created with Inkscape (http://www.inkscape.org/) -->

<svg
   xmlns:dc="http://purl.org/dc/elements/1.1/"
   xmlns:cc="http://creativecommons.org/ns#"
   xmlns:rdf="http://www.w3.org/1999/02/22-rdf-syntax-ns#"
   xmlns:svg="http://www.w3.org/2000/svg"
   xmlns="http://www.w3.org/2000/svg"
   xmlns:sodipodi="http://sodipodi.sourceforge.net/DTD/sodipodi-0.dtd"
   xmlns:inkscape="http://www.inkscape.org/namespaces/inkscape"
   version="1.0"
   width="156.332"
   height="163.04308"
   id="svg3087"
   sodipodi:version="0.32"
   inkscape:version="0.92.2 2405546, 2018-03-11"
   sodipodi:docname="crest-full-colour.svg"
   inkscape:output_extension="org.inkscape.output.svg.inkscape">
  <metadata
     id="metadata3599">
    <rdf:RDF>
      <cc:Work
         rdf:about="">
        <dc:format>image/svg+xml</dc:format>
        <dc:type
           rdf:resource="http://purl.org/dc/dcmitype/StillImage" />
        <dc:title>Bristol University Logo</dc:title>
      </cc:Work>
    </rdf:RDF>
  </metadata>
  <sodipodi:namedview
     inkscape:window-height="696"
     inkscape:window-width="1024"
     inkscape:pageshadow="2"
     inkscape:pageopacity="0.0"
     guidetolerance="10.0"
     gridtolerance="10.0"
     objecttolerance="10.0"
     borderopacity="1.0"
     bordercolor="#666666"
     pagecolor="#ffffff"
     id="base"
     showgrid="false"
     inkscape:zoom="1.00369"
     inkscape:cx="253.56801"
     inkscape:cy="13.51495"
     inkscape:window-x="0"
     inkscape:window-y="0"
     inkscape:current-layer="g3096"
     fit-margin-top="3"
     units="px"
     fit-margin-bottom="3"
     fit-margin-left="1"
     fit-margin-right="1"
     inkscape:window-maximized="0" />
  <defs
     id="defs3187">
    <inkscape:perspective
       sodipodi:type="inkscape:persp3d"
       inkscape:vp_x="0 : 82 : 1"
       inkscape:vp_y="0 : 1000 : 0"
       inkscape:vp_z="542 : 82 : 1"
       inkscape:persp3d-origin="271 : 54.666667 : 1"
       id="perspective3601" />
  </defs>
  <title
     id="title3089">Bristol University Logo</title>
  <g
     id="g3091"
     xml:space="preserve"
     transform="translate(-16.933824,-335.05258)">
<clipPath
   id="clippath1"> 	<path
   d="M 0,634.957 V 792 H 542.832 V 634.957"
   id="path3094"
   inkscape:connector-curvature="0" />
</clipPath>
<g
   id="g3096"> 





















<g
   id="g3122"
   style="fill:#bf2f38;fill-opacity:1;fill-rule:nonzero;stroke-width:0;stroke-linecap:butt;stroke-linejoin:miter;stroke-miterlimit:10"
   transform="translate(17.933824,-296.90442)">
	<path
   inkscape:connector-curvature="0"
   d="m 103.047,705.219 c -0.067,-5.391 -1.899,-16.41 -14.7931,-22.664 13.0941,4.16 19.3941,15.226 20.0351,23.48 13.75,2.742 25.953,9.211 45.766,2.379 l 0.066,-0.043 c 0,0 -26.07,0.238 -36.973,-7.648 5.633,0.211 12.114,-1.063 14.239,-4.25 2.261,-3.395 2.496,-6.903 8.074,-7.082 3.133,-0.102 13.758,0.691 14.871,-14.911 -3.398,5.739 -7.082,8.11 -12.641,6.692 -3.55,-0.902 -10.031,-3.621 -14.664,1.914 -3.824,4.566 -7.929,6.941 -14.48,6.234 2.621,-3.543 41.68,-54.258 41.68,-54.258 0,0 -50.039,40.161 -52.801,42.5 -0.531,-7.332 1.664,-10.023 4.601,-13.246 2.407,-2.636 6.586,-6.207 3.258,-13.742 -2.687,-6.09 -2.336,-9.773 4.996,-15.617 -5.843,0.426 -14.7615,4.355 -13.707,15.086 0.641,6.48 -3.9529,7.043 -5.6287,7.969 -4.3555,2.41 -4.9219,9.422 -5.0664,14.875 -0.4922,-1.774 -6.832,-29.024 -9.0625,-37.84 0,0.004 0,73.324 0,73.324 h 0.168 c 8.4922,-3.344 15.5547,-3.855 22.0626,-3.152"
   id="path3124"
   style="fill:#bf2f38;fill-opacity:1" />
</g><g
   id="g3174"
   style="fill:#bf2f38;fill-opacity:1;fill-rule:nonzero;stroke-width:0;stroke-linecap:butt;stroke-linejoin:miter;stroke-miterlimit:10"
   transform="translate(17.933824,-296.90442)">
	<path
   inkscape:connector-curvature="0"
   d="m 53.9414,674.707 c -0.5703,-3.047 -0.2851,-9.066 2.6914,-15.016 -10.9805,8.286 -11.1211,15.016 -11.1211,15.016 0,0 2.125,-1.629 8.4297,0 z m -5.1016,-18.133 c 0,0 -13.3164,1.914 -17.1406,2.27 -2.6367,1.554 -5.664,5.914 -5.664,5.914 0,0 -3.1172,0.457 -9.3516,1.59 -4.332,2.828 -6.94141,9.422 -1.5586,14.804 -1.6992,-0.355 -1.6992,-0.355 -4.1758,-0.781 -5.31248,3.402 -2.83592,9.707 8.2149,7.512 -3.1172,-0.11 -4.6758,-1.629 -4.6407,-3.613 -0.0703,-2.161 4.1446,-4.852 9.2774,-3.473 -4.8867,-9.242 0.5312,-12.891 0.5312,-12.891 0,0 -2.8672,7.633 3.4024,13.883 0.5664,-0.922 2.4414,-3.504 7.7187,-3.613 5.2578,-0.106 8.5625,2.48 8.6407,5.457 0.0703,2.621 -3.2579,5.383 -7.5782,5.383 l -0.0703,-6.262 c 0,0 -1.4062,0.504 -1.8047,1.058 0.0039,0.29 -0.039,5.274 -0.039,5.274 -1.6993,0 -5.168,-0.707 -7.0078,-3.649 -1.418,-0.14 -9.3165,-1.312 -9.3165,-1.312 l 0.4258,2.09 c 0,0 2.7617,0.461 3.293,3.222 0.6445,3.344 2.5508,6.411 4.25,7.653 3.293,-0.391 8.7461,-4.535 18.7695,-4.391 -9.207,1.274 -18.5547,11.117 -32.0156,7.364 21.3906,7.296 23.5859,-8.922 50.3594,-3.825 -4.1797,-2.55 -10.4102,-3.328 -10.4102,-3.328 0,0 3.3281,-3.613 3.4688,-9.137 0.4258,-0.027 0.9922,-0.07 2.0547,-0.175 0.3554,-1.774 0.6015,-3.571 0.6015,-3.571 0,0 -5.8437,-0.007 -10.7461,-0.007 -11.9375,-12.079 0.5117,-23.446 0.5117,-23.446 z m -29.8867,-0.211 c 3.3633,0.176 7.4532,-1.914 7.7188,-2.09 0,0 -1.418,3.579 1.7695,3.364 3.4609,-0.231 7.4414,-2.004 8.0039,-2.266 v -4.605 c -0.3086,0.226 -3.6797,2.609 -7.5078,3.472 -1.3984,0.313 -0.9219,-0.922 -0.7812,-1.629 0.1445,-0.707 0.2382,-1.289 -2.2657,-0.25 -10.2343,4.25 -10.7656,1.348 -10.7656,0.993 -0.4219,0.496 -0.2422,2.796 3.8281,3.011 z m 54.2461,-21.316 c 0,0 0,72.152 0,73.324 -29.5,-11.617 -41.789,10.906 -73.1992,0 0,0.332 0,-73.324 0,-73.324 h 14.9453 v 7.914 h 8.5703 v -7.914 h 8.4297 v 7.914 h 8.4961 l 0.0039,-7.914 h 8.4961 v 7.914 h 9.2422 v -7.914 h 15.0156"
   id="path3176"
   style="fill:#bf2f38;fill-opacity:1" />
</g><g
   id="g3178"
   style="fill:#bf2f38;fill-opacity:1;fill-rule:nonzero;stroke-width:0;stroke-linecap:butt;stroke-linejoin:miter;stroke-miterlimit:10"
   transform="translate(17.933824,-296.90442)">
	<path
   inkscape:connector-curvature="0"
   d="m 101.352,734.781 c 0,0 -0.348,-0.172 0.316,-0.73 0.082,-0.067 0.211,0.086 0.598,0.09 0.519,0.007 0.793,-0.172 1.226,-0.696 0.653,-0.789 -0.711,-1.093 -1.152,-0.711 -0.485,0.414 -0.832,0.844 -1.25,1.227 0,0 -0.699,0.621 0.262,0.82 z m 25.253,37.043 c -1.167,0.953 -4.781,2.778 -5.683,3.203 -0.902,0.426 -1.195,0.684 -1.859,2 -0.817,1.614 -1.594,4.536 -1.383,4.746 2.23,-0.351 3.824,-2.23 3.824,-2.23 0,0 0.035,-0.461 -0.461,-1.242 -0.41,-0.645 0.391,-1.344 0.887,-0.938 0.379,0.313 0.902,0.375 1.222,0.106 0.317,-0.266 7.278,-4.692 7.594,-5.203 -1.414,-1.399 -2.496,-2.817 -2.496,-2.817 0,0 -0.477,1.418 -1.645,2.375 z m -27.1987,-19.41 c -2.9766,-1.203 -3.6407,-2.008 -4.1954,-2.25 -0.4961,-0.207 -2.5429,0.66 -2.8867,1.543 -0.9219,2.371 -2.9765,6.25 -3.2773,6.801 -0.1602,0.293 -0.336,0.637 -0.3008,1.027 0.0352,0.387 0.1523,1.91 0.1172,2.266 -0.0352,0.355 0.0156,0.816 0.1601,1.168 0.1407,0.355 0.3243,1.875 1.1055,3.398 1.7344,-1.734 1.9883,-4.293 1.875,-3.789 0,0.016 0.5508,-0.933 -0.832,-1.363 -0.3906,-0.121 -0.3321,-1.145 0.0898,-1.274 0.5156,-0.16 0.7774,-0.3 1.0274,-1.218 0.2461,-0.926 1.1836,-4.235 1.4882,-4.871 0.0469,-0.098 0.1329,-0.266 0.3047,-0.344 0.2657,-0.125 0.5821,-0.211 0.8438,-0.254 0.1328,-0.02 0.3828,0.121 0.457,0.199 0.4727,0.477 2.9258,2.469 2.9258,2.469 0,0 1.0977,-0.106 1.7694,-0.391 -0.4217,-0.672 -0.6014,-2.301 -0.6717,-3.117 z m -3,-13.988 c 0,0 -1.0391,1.277 0.1328,1.594 0.0273,0.371 0.1718,1.105 0.3164,1.488 0.1953,0.512 0.5312,0.347 0.9062,-0.082 0.3711,-0.422 0.9688,-1.231 1.4063,-1.696 0.3984,-0.425 1.785,-0.273 1.223,0.583 -0.371,0.566 -0.6644,0.718 -1.1449,0.824 -0.375,0.082 -0.4883,-0.242 -0.9023,0.32 -0.4336,0.586 -0.8946,0.996 -0.1329,0.996 0.3985,0 1.1563,0.371 1.6602,0.289 0.4769,-0.074 0.5269,-0.383 0.5779,-0.808 0.055,-0.446 -0.031,-0.7 0.465,-0.973 0.637,-0.356 1.574,-1.207 1.859,-1.508 0.325,-0.344 0.743,-0.265 1.168,-0.265 0.422,0 2.477,0.25 3.7,-1.583 0.863,-1.292 0.957,-3.054 0.636,-4.648 0.586,0.582 1.371,2.422 0.957,4.141 -0.738,3.066 -2.246,3.238 -3.773,3.558 -0.637,0.903 -2.266,3.223 -3.133,7.442 -0.371,0.246 -3.453,3.218 -0.875,8.101 -0.664,0.215 -2.621,1.055 -3.7811,1.317 -0.7774,0.175 -1.4297,0.218 -1.7461,0.593 -0.3516,0.422 -1.168,1.805 -0.7422,2.496 0.3008,0.489 2.2305,4.805 2.3906,6.137 0.1602,1.324 0.6406,1.641 1.1172,2.071 0.5313,0.476 0.875,0.453 1.6176,1.011 0.754,0.563 1.379,1.578 2.074,2.121 0.742,0.586 1.574,0.852 2.16,0.797 -0.145,-2.16 -0.605,-4.285 -1.277,-4.992 -0.7,-0.734 -1.575,0.316 -1.786,0.371 -0.214,0.055 -0.511,-0.152 -0.64,-0.742 -0.133,-0.613 0.426,-1.117 -0.106,-1.914 -0.9879,-1.481 -1.9293,-3.149 -2.0426,-3.375 -0.6914,-1.352 0.4805,-1.711 0.7695,-1.645 0.6911,0.16 4.8321,0.719 5.4691,0.77 0.636,0.055 0.992,0.16 1.277,-0.16 0.875,-0.981 1.379,-1.7 1.887,-2.707 0.926,0.691 0.289,2.019 0.023,3.593 0.266,0.231 6.27,3.258 14.524,1.063 3.445,-0.914 3.05,-0.191 3.379,0.441 2,3.879 3.418,5.379 5.793,7.282 0.707,0.562 1.203,1.484 1.519,2.015 0.32,0.531 0.398,1.477 0.145,2.09 -0.321,0.762 -2.164,4.066 -2.481,4.531 -0.601,0.887 -1.387,1.629 -2.055,1.985 -2.089,1.117 -2.609,2.117 -2.839,2.898 0.476,0 5.363,0 5.363,0 0,0 0.125,-0.281 0.062,-0.949 -0.089,-0.938 0.762,-1.098 1.028,-1.152 0.265,-0.051 0.742,0.16 1.168,-0.848 0.797,-1.899 3.914,-7.192 4.179,-7.668 0.266,-0.481 1.239,-1.758 0.282,-2.32 -1.805,-1.063 -2.868,-2.809 -3.223,-4.766 -0.141,-0.777 -0.055,-2.059 1.699,-4.246 3.754,-4.676 0.957,-14.309 -7.398,-14.133 -4.742,0.102 -7.379,-0.301 -10.465,-0.918 -1.129,-0.226 -1.324,-0.836 -1.082,-1.523 0.25,-0.707 0.488,-2.118 0.496,-2.692 -0.813,-0.746 -2.055,-1.203 -2.656,-1.418 -0.649,-0.226 -0.973,-0.746 -0.317,-0.797 0.653,-0.05 3.133,0.215 3.133,0.215 0,0 0.09,-1.328 -0.266,-3.277 -1.062,-0.461 -2.41,-0.852 -3.824,-1.027 -0.375,-0.047 -0.703,-0.465 0.246,-0.602 1.243,-0.176 2.375,0.02 3.258,-0.035 0.055,-0.106 -0.422,-2.586 -1.301,-3.586 -0.609,-0.184 -0.933,-0.27 -3.054,-0.524 -0.742,-0.085 -0.778,-0.3 -0.282,-0.46 0.575,-0.184 1.532,-0.372 2.727,-0.293 -0.461,-0.633 -3.543,-6.254 -9.934,-4.567 0.715,0.879 1.063,1.285 1.274,1.887 0.191,0.539 -0.379,0.711 -0.902,0.16 -2.02,-2.125 -3.083,-2.074 -4.383,-2.312 0.851,0.824 1.222,1.648 1.515,2.468 -1.461,1.039 -3.5348,3.508 -3.8278,3.989 -0.5547,0.906 0.2148,1.398 0.2148,1.398 z m 41.3007,-14.235 c -6.535,2.286 -5.57,9.329 -3.809,12.039 2.305,3.543 4.25,3.614 5.719,7.774 1.149,3.246 -0.902,4.941 -2.922,5.684 3.453,2.128 7.016,-0.071 8.289,-2.196 2.348,-3.129 -0.312,-7.191 2.196,-9.312 0.672,-0.567 1.804,-0.957 3.328,-1.028 -1.524,-2.16 -5.098,-1.914 -6.531,0.106 -1.012,-2.336 -3.844,-4.379 -2.817,-8.004 0.672,-2.371 4.426,-3.258 5.844,-1.309 0.773,1.067 0.883,3.153 -1.383,4.215 1.418,-0.105 4.109,-2.551 2.266,-5.879 -1.293,-2.34 -3.469,-2.515 -5.239,-2.515 -3.222,0 -8.57,3.683 -5.152,11.632 -1.969,-1.75 -5.152,-7.859 0.211,-11.207 z m 16.301,-8.277 c 0,-1.172 0,73.41 0,73.414 -40.582,9.879 -41.754,-11.687 -73.2033,0 0.0039,0.953 -0.0117,-73.422 0,-73.414 28.8983,-12.113 40.1603,10.836 73.2033,0"
   id="path3180"
   style="fill:#bf2f38;fill-opacity:1" />
</g><g
   id="g3182"
   style="fill:#bf2f38;fill-opacity:1;fill-rule:nonzero;stroke-width:0;stroke-linecap:butt;stroke-linejoin:miter;stroke-miterlimit:10"
   transform="translate(17.933824,-296.90442)">
	<path
   inkscape:connector-curvature="0"
   d="m 26.6289,757.797 c 0,0 -1.2851,0.836 0.3242,4.367 1.6094,3.524 3.6055,6.809 0.1289,10.684 1.9727,0.023 6.2735,-2.575 1.6719,-10.317 -1.0586,-1.785 -2.2031,-3.019 -2.125,-4.734 z m -4.3516,1.66 c 1.0625,-0.07 1.1954,-1.375 1.004,-2.059 -0.2266,-0.808 -1.5743,-0.91 -1.9024,0.122 -0.3203,1.019 -0.0391,2.007 -0.0391,2.007 0.2657,0.985 1.3711,1.262 1.4688,1.164 -0.6172,-0.55 -0.4492,-0.867 -0.5313,-1.234 z m 1.0196,4.688 c -0.2539,3.117 -2.043,3.578 -2.043,3.578 -3.1211,-1.434 -4.793,2.492 -2.1758,3.648 3.3203,1.469 5.3477,-2.82 5.5469,-3.613 0.5586,-2.25 0.6133,-3.84 0.3594,-7.488 -0.211,-3.114 0.5547,-3.582 1.0664,-3.668 0.5156,-0.086 1.582,-0.129 2.6445,3.113 1.0664,3.242 3.3672,3.711 3.3672,3.711 0,0 -3.332,-5.422 1.3008,-10.426 2.1562,-2.324 6.5469,-3.648 5.7344,-6.906 0,0 -0.6797,1.168 -2,1.511 -1.3204,0.34 -3.8829,0.723 -3.8829,0.723 0,0 6.1446,-2.898 7.25,-6.226 0,0 1.9219,3.199 -0.6367,7.89 0,0 2.4336,-0.871 5.0586,0.313 6.6836,2.961 5.9727,12.48 -2.4844,14.75 -12.0351,3.23 -7.664,12.539 -0.7734,13.109 -0.7383,-0.469 -0.9062,-3.273 0.3047,-4.941 0.6016,-0.539 1.6836,-1.625 2.3672,0.66 1.2109,4.031 4.7422,4.359 6.3828,3.855 -0.4297,-0.363 -1.2344,-1.59 -1.1367,-2.297 0.2031,-1.41 1.9648,0.055 2.6054,0.239 4.7422,1.343 7.2618,0.168 7.5313,-0.539 -1.0586,-0.219 -0.875,-0.102 -1.5469,-0.27 -0.625,-0.156 -1.8437,-1.023 0.4375,-1.547 4.1875,-0.957 6.4922,-5.277 3.7344,-8.605 -2.6328,-3.18 -5.9492,-2.692 -7.0273,-2.254 4.539,0.976 4.7656,4.629 2.4531,6.488 -2.0156,1.516 -7.0274,2.117 -8.7422,-1.242 -1.082,0.781 -1.4609,2.035 -1.2774,3.598 -0.4531,-0.172 -2.3554,-2.875 0.4688,-5.11 13.0977,-8.445 10.9844,-22.633 -0.0977,-28.472 l -0.1406,-0.059 c -10.0547,-5.777 -18.8515,-0.504 -18.8515,-0.504 6.2187,-6.226 16.9609,-2.523 18.5078,-1.75 0,0 -1.2383,-1.074 -1.8946,-2.062 -0.8515,-1.278 -0.8203,-2.5 -0.8203,-2.5 -4.2656,2.382 -5.3633,-1.274 -5.3633,-1.274 0,0 -3.6953,3.328 -6.0937,0.621 -2.0938,-2.371 1.3008,-5.586 1.3008,-5.586 -21.6367,7.102 -17.5352,19.321 -17.5352,19.321 0,0 -3.1328,2.875 -3.8359,9.812 -0.7969,7.875 3.1289,13.477 8.0312,11.938 1.125,-0.352 1.6797,-0.887 1.8985,-1.477 z m 49.9062,-48.231 c 0.0117,-0.008 -0.0039,74.367 0,73.414 -31.4492,-11.687 -32.6172,9.879 -73.2031,0 0,-0.004 0,-74.586 0,-73.414 33.0391,10.836 44.3047,-12.113 73.2031,0"
   id="path3184"
   style="fill:#bf2f38;fill-opacity:1" />
</g>
</g>
</g></svg>
